PathFileType	4	(X/Y/Z)	C:/Users/beibeiliu/ov580/test_trc/User3\sequence.13_training_dense_left.trc
DataRate	CameraRate	NumFrames	NumMarkers	Units	OrigDataRate	OrigDataStartFrame	OrigNumFrames
120	120	13	19	mm	120	70	278
Frame#	Time	ThumbCMC			ThumbMCP			ThumbIP			ThumbTip			IndexMCP			IndexPIP			IndexTip			MiddleMCP			MiddlePIP			MiddleTip			RingMCP			RingPIP			RingTip			PinkyMCP			PinkyPIP			PinkyTip			BackHand1			BackHand2			BackHand3	
		X0	Y0	Z0	X1	Y1	Z1	X2	Y2	Z2	X3	Y3	Z3	X4	Y4	Z4	X5	Y5	Z5	X6	Y6	Z6	X7	Y7	Z7	X8	Y8	Z8	X9	Y9	Z9	X10	Y10	Z10	X11	Y11	Z11	X12	Y12	Z12	X13	Y13	Z13	X14	Y14	Z14	X15	Y15	Z15	X16	Y16	Z16	X17	Y17	Z17	X18	Y18	Z18	
69	0.575	-217.011	7.37283	-2.41501	-183.589	22.4874	-20.9083	-155.325	20.7147	-33.7823	-134.672	1.06867	-32.4026	-210.319	-12.2681	-77.6051	-201.464	-8.36188	-104.127	-193.995	-5.36068	-125.096	-183.93	-36.7543	-76.1537	-170.852	-34.596	-95.914	-152.412	-27.2251	-122.982	-161.084	-29.3912	-50.6167	-143.354	-7.03792	-41.787	-162.547	2.22495	-15.1739	-151.035	-33.9913	-32.7459	-146.324	-8.45929	-21.5904	-163.624	-4.4789	0.763586	-203.751	-54.5753	-15.0412	-214.188	-54.6215	15.1455	-228.751	-30.0851	-13.191	
70	0.583333	-211.687	16.3265	-1.24945	-177.901	21.976	-16.7622	-148.411	18.0954	-31.8229	-132.362	-6.02836	-33.5322	-210.174	-3.51046	-76.3232	-205.11	2.79057	-98.0993	-192.945	4.56057	-125.653	-191.716	-28.1742	-75.3533	-176.179	-29.1525	-97.8692	-160.053	-21.1729	-124.142	-164.332	-29.9455	-52.6439	-144.243	-5.60588	-41.6954	-162.593	0.07615	-13.0391	-152.693	-35.0039	-34.667	-141.871	-14.9648	-20.5736	-165.746	-6.31612	0.134283	-206.31	-49.3916	-18.1563	-219.458	-44.5826	11.9838	-229.788	-20.5488	-11.6945	
71	0.591667	-204.151	22.0438	-1.56214	-169.923	28.0535	-13.1658	-144.395	15.1253	-29.6499	-129.085	-9.31629	-33.2558	-204.6	2.56443	-74.3022	-198.32	11.415	-99.6715	-189.15	15.0589	-123.631	-194.505	-21.667	-74.6145	-180.47	-19.012	-99.4892	-160.171	-16.0133	-127.183	-165.141	-23.0931	-54.7836	-142.661	-9.33286	-45.5965	-158.956	0.416322	-12.4033	-159.235	-36.4557	-33.8533	-143.795	-14.0307	-21.7571	-163.587	-4.46562	1.45692	-209.222	-40.5769	-19.85	-220.987	-39.2828	10.708	-229.966	-7.83783	-12.748	
72	0.6	-198.177	29.531	6.95908	-162.782	28.4915	-10.617	-137.349	17.062	-28.88	-131.62	-11.8913	-33.1568	-203.107	14.1855	-71.4339	-196.08	20.4128	-95.0095	-187.713	27.2611	-116.977	-194.084	-14.3754	-75.4343	-179.403	-14.5304	-100.29	-162.617	-11.7131	-124.104	-167.14	-21.1434	-54.3153	-141.325	-7.45631	-43.2193	-155.798	2.84903	-12.8638	-163.862	-31.4707	-36.1219	-143.127	-16.3526	-22.4312	-159.414	-6.48245	3.82524	-214.087	-33.4194	-16.9085	-224.962	-29.6695	14.084	-227.217	0.411887	-7.18477	
73	0.608333	-191.101	31.5327	12.0321	-158.27	25.3833	-9.81403	-134.674	10.7611	-29.4615	-128.669	-13.6215	-34.5087	-199.713	27.2537	-64.574	-192.108	36.4812	-90.4535	-181.365	37.6756	-115.029	-196.541	-0.864838	-71.7405	-184.725	-3.84759	-95.6606	-165.611	-4.30242	-125.527	-173.075	-15.5326	-54.6159	-142.644	-8.02653	-43.8475	-153.596	-0.618793	-12.5232	-163.861	-29.5443	-38.1624	-143.826	-19.4126	-21.5295	-160.936	-4.03954	-0.00850978	-216.03	-19.9264	-18.6048	-223.855	-25.3253	11.0606	-223.107	10.2442	-5.37399	
74	0.616667	-183.867	30.9126	14.9476	-149.673	26.2225	-6.23365	-132.507	7.21557	-29.0481	-129.768	-16.4677	-37.7584	-193.517	35.6355	-60.4216	-185.681	43.363	-84.9623	-176.145	51.3354	-107.678	-196.721	8.42756	-71.5278	-185.877	5.96933	-94.8101	-172.101	8.29484	-121.864	-176.779	-10.4107	-54.0227	-143.328	-13.4809	-44.7423	-149.349	-5.59322	-16.6235	-169.643	-31.1409	-37.8463	-148.173	-22.167	-26.8546	-156.76	-6.25177	-1.52552	-216.913	-15.2521	-13.0966	-227.227	-12.3819	15.0273	-218.901	20.3616	0.39594	
75	0.625	-174.571	32.6475	18.1615	-146.249	19.8589	-4.60969	-130.911	5.26386	-27.1302	-133.753	-20.2823	-39.505	-188.622	39.8646	-56.7076	-177.586	48.638	-82.0001	-169.041	58.2444	-101.594	-196.677	16.8309	-66.6661	-187.979	13.7465	-92.3921	-174.327	13.787	-123.19	-177.917	-11.1826	-54.1603	-147.508	-13.8206	-48.3672	-153.961	-7.9616	-12.5472	-177.809	-27.478	-37.7134	-151.512	-27.3779	-26.9082	-155.096	-8.21602	-2.25036	-217.175	-2.32548	-15.6062	-226.555	-5.13504	19.4232	-215.544	24.9129	6.98193	
76	0.633333	-166.757	29.2665	19.1295	-141.566	14.745	-3.28266	-135.42	-3.39438	-28.8791	-139.27	-25.265	-44.14	-180.104	47.5261	-48.6202	-170.034	55.6116	-73.8076	-163.35	58.0948	-96.0913	-195.158	22.6209	-65.2303	-189.021	19.6065	-90.0831	-177.882	21.7467	-117.3	-181.045	-4.93071	-52.9681	-152.419	-20.9753	-46.2503	-155.079	-14.9111	-15.2265	-182.148	-28.5808	-39.4057	-157.328	-30.604	-28.7945	-157.22	-13.142	0.891939	-217.832	2.52274	-8.1251	-227.167	-2.46484	17.747	-209.195	29.8526	7.1463	
77	0.641667	-164.354	22.0473	23.2702	-142.289	7.70119	-4.26245	-134.032	-9.31841	-30.4635	-144.395	-27.7832	-45.1249	-175.864	45.9354	-47.0119	-165.03	55.2763	-71.0693	-158.315	60.3929	-94.9291	-193.11	27.7925	-60.2944	-187.502	26.3371	-84.8296	-180.372	22.9602	-115.372	-182.2	-6.16384	-52.333	-157.397	-23.8306	-45.1711	-158.441	-16.7636	-12.4607	-186.022	-24.8068	-41.0072	-161.198	-30.8835	-28.931	-160.869	-18.0538	-4.51573	-219.596	7.77141	-7.99788	-224.204	1.94192	23.1552	-203.523	31.2603	11.4953	
78	0.65	-155.135	17.4809	25.3511	-140.016	1.65742	-7.33765	-137.819	-13.7206	-32.5575	-153.027	-28.8341	-47.188	-167.694	46.7177	-45.4996	-157.805	55.6326	-64.9525	-151.849	61.3706	-87.6137	-192.897	27.6479	-55.3043	-186.191	30.1691	-86.8814	-179.247	31.081	-113.706	-185.941	-2.4125	-50.1514	-162.55	-26.3998	-48.4591	-158.89	-23.1578	-17.2952	-193.548	-21.1367	-38.7828	-165.883	-32.5035	-30.0191	-163.922	-22.7215	-3.57129	-213.249	12.0605	-1.84081	-219.184	5.90349	24.8976	-192.544	32.0081	17.3662	
79	0.658333	-151.903	8.70252	23.6144	-137.237	-4.84853	-7.7074	-136.762	-17.1839	-37.8841	-155.936	-28.9655	-53.9063	-162.802	45.3481	-40.446	-152.471	56.0151	-66.0952	-145.689	64.8197	-82.5287	-188.721	32.9633	-53.8323	-183.228	37.0027	-79.1127	-180.461	36.3998	-109.874	-183.956	0.376575	-53.6678	-167.962	-24.871	-51.6893	-160.849	-25.2444	-20.3119	-196.015	-17.4775	-41.2768	-174.478	-34.9187	-35.8119	-168.202	-27.3692	-7.57411	-211.283	14.0745	0.640857	-215.402	10.7295	27.5157	-186.65	31.2798	20.2924	
80	0.666667	-149.704	0.716832	23.58	-133.339	-11.2325	-6.96748	-140.914	-17.18	-38.4942	-157.918	-26.372	-54.2138	-155.239	47.9079	-38.5744	-146.707	58.037	-60.876	-137.225	69.1182	-79.2613	-183.39	37.8947	-49.7156	-181.383	43.6851	-77.5727	-175.863	46.5462	-105.468	-183.88	6.37438	-49.3712	-168.836	-18.7825	-55.9809	-162.403	-24.3721	-21.223	-198.028	-16.1263	-43.4745	-177.512	-29.6745	-38.6574	-171.064	-30.6573	-8.97653	-208.651	19.8651	-1.22889	-208.547	9.95999	31.31	-178.971	27.0481	24.7916	
81	0.675	-142.749	-5.67901	25.3158	-133.297	-13.9539	-9.95457	-138.773	-16.6754	-41.0186	-158.09	-22.6889	-57.1792	-149.669	45.9966	-30.912	-143.522	58.4378	-51.7682	-136.642	71.6815	-73.9047	-175.398	43.2484	-44.5664	-173.267	51.7925	-70.6972	-175.65	55.1418	-100.908	-184.242	9.24917	-47.7089	-173.173	-17.0356	-57.3672	-163.837	-25.1955	-22.0174	-193.971	-8.48476	-42.3669	-177.787	-28.2006	-39.7273	-173.498	-32.5266	-8.26751	-204.527	19.1749	4.73554	-208.922	6.62542	31.7244	-173.857	22.2615	26.7225	
